<svg xmlns="http://www.w3.org/2000/svg" data-name="Layer 1" viewBox="0 0 100 125" x="0px" y="0px"><title>Recycling_1</title><path d="M19.91,50.14l10.87-6.88C22.64,25.41,44.3,18.74,44.3,18.74,36,23,41.64,32.35,43.59,35.16l9.87-6.24L43,48.32Z"/><path d="M69.43,29.09c-12-22.76-25.91-8.35-25.91-8.35,7.21-3.54,11.76,4.71,12.52,9.52Z"/><path d="M69.43,29.09l.52,12.86c19.53,1.88,14.47,24,14.47,24C84.88,56.6,74,56.8,70.55,57.08L71,68.75,59.46,48.84Z"/><path d="M62.88,82.49c25.72,1,20.19-18.26,20.19-18.26-.55,8-10.15,8.16-14.69,6.41Z"/><path d="M62.88,82.48l-11.4-6c-11.38,16-28,.56-28,.56,7.83,5.05,13.12-4.5,14.57-7.59L27.72,64.05l23-1.11Z"/><path d="M19.89,50.13c-13.7,21.79,5.73,26.61,5.73,26.61C19,72.26,24,63.86,27.8,60.79Z"/><text x="0" y="115" fill="#000000" font-size="5px" font-weight="bold" font-family="'Helvetica Neue', Helvetica, Arial-Unicode, Arial, Sans-serif">Created by Nykyta Kravchuk</text><text x="0" y="120" fill="#000000" font-size="5px" font-weight="bold" font-family="'Helvetica Neue', Helvetica, Arial-Unicode, Arial, Sans-serif">from the Noun Project</text></svg>