<svg width="152" height="44" viewBox="0 0 152 44" fill="none" xmlns="http://www.w3.org/2000/svg">
<path d="M131.612 1.52338C121.197 1.88707 113.131 10.7002 113.489 20.9572C113.853 31.3719 122.666 39.4376 132.923 39.0794C143.338 38.7158 151.404 29.9026 151.045 19.6457C150.682 9.23096 141.869 1.1652 131.612 1.52338Z" fill="#050709"/>
<path d="M88.9475 5.85709C86.9878 4.02963 83.8318 4.13984 82.0044 6.09955C80.1769 8.05926 80.2871 11.2152 82.2468 13.0427L86.3296 16.8499L52.4029 18.0346C49.7203 18.1283 47.5883 20.4146 47.6819 23.0972C47.7756 25.7798 50.0619 27.9118 52.7445 27.8181L86.5134 26.6389L82.7117 30.8794C80.8843 32.8391 80.9945 35.9951 82.9542 37.8226C83.934 38.7363 85.2129 39.1656 86.4753 39.1215C87.7377 39.0774 88.9836 38.56 89.8973 37.5801L101.928 24.6787C103.756 22.719 103.645 19.563 101.686 17.7356L88.9475 5.85709Z" fill="#050709"/>
<path d="M33.4831 5.58207L3.81694 6.61803C1.92336 6.68416 0.552768 8.15393 0.618893 10.0475L1.65486 39.7137C1.72098 41.6072 3.19076 42.9778 5.08435 42.9117L34.7505 41.8757C36.6441 41.8096 38.0146 40.3398 37.9485 38.4462L36.9126 8.78011C36.8464 6.88653 35.3767 5.51594 33.4831 5.58207Z" fill="#050709"/>
</svg>
